<mxfile host="Electron" agent="Mozilla/5.0 (Macintosh; Intel Mac OS X 10_15_7) AppleWebKit/537.36 (KHTML, like Gecko) draw.io/26.2.15 Chrome/134.0.6998.205 Electron/35.2.1 Safari/537.36" version="26.2.15">
  <diagram name="Page-1" id="Sx9dcp2kNkRdtRJl2hE4">
    <mxGraphModel dx="1234" dy="917" grid="1" gridSize="10" guides="1" tooltips="1" connect="1" arrows="1" fold="1" page="1" pageScale="1" pageWidth="1169" pageHeight="827" math="0" shadow="0">
      <root>
        <mxCell id="0" />
        <mxCell id="1" parent="0" />
        <mxCell id="bqWLZiY46NRUOo7dt1Uh-1" value="Array of RPs from&lt;div&gt;&lt;span style=&quot;font-weight: normal;&quot;&gt;&lt;font face=&quot;Courier New&quot;&gt;bpf_get_stack()&lt;/font&gt;&lt;/span&gt;&lt;/div&gt;" style="swimlane;whiteSpace=wrap;html=1;startSize=40;fontSize=17;" vertex="1" parent="1">
          <mxGeometry x="140" y="20" width="190" height="210" as="geometry" />
        </mxCell>
        <mxCell id="bqWLZiY46NRUOo7dt1Uh-2" value="&lt;font style=&quot;font-size: 17px;&quot;&gt;0x7A342FF669EB&lt;/font&gt;" style="rounded=0;whiteSpace=wrap;html=1;fillColor=#f5f5f5;fontColor=#333333;strokeColor=#666666;" vertex="1" parent="bqWLZiY46NRUOo7dt1Uh-1">
          <mxGeometry x="22.5" y="50" width="145" height="30" as="geometry" />
        </mxCell>
        <mxCell id="bqWLZiY46NRUOo7dt1Uh-3" value="&lt;font style=&quot;font-size: 17px;&quot;&gt;0x7A342FF6692A&lt;/font&gt;" style="rounded=0;whiteSpace=wrap;html=1;fillColor=#f5f5f5;fontColor=#333333;strokeColor=#666666;" vertex="1" parent="bqWLZiY46NRUOo7dt1Uh-1">
          <mxGeometry x="22.5" y="80" width="145" height="30" as="geometry" />
        </mxCell>
        <mxCell id="bqWLZiY46NRUOo7dt1Uh-4" value="&lt;font style=&quot;font-size: 17px;&quot;&gt;0x7A342FF669EB&lt;/font&gt;" style="rounded=0;whiteSpace=wrap;html=1;fillColor=#d5e8d4;strokeColor=#82b366;" vertex="1" parent="bqWLZiY46NRUOo7dt1Uh-1">
          <mxGeometry x="22.5" y="109" width="145" height="30" as="geometry" />
        </mxCell>
        <mxCell id="bqWLZiY46NRUOo7dt1Uh-5" value="&lt;font style=&quot;font-size: 17px;&quot;&gt;0x7A342FF669EB&lt;/font&gt;" style="rounded=0;whiteSpace=wrap;html=1;" vertex="1" parent="bqWLZiY46NRUOo7dt1Uh-1">
          <mxGeometry x="22.5" y="140" width="145" height="30" as="geometry" />
        </mxCell>
        <mxCell id="bqWLZiY46NRUOo7dt1Uh-6" value="&lt;font style=&quot;font-size: 17px;&quot;&gt;0x7A342FF669EB&lt;/font&gt;" style="rounded=0;whiteSpace=wrap;html=1;" vertex="1" parent="bqWLZiY46NRUOo7dt1Uh-1">
          <mxGeometry x="22.5" y="170" width="145" height="30" as="geometry" />
        </mxCell>
        <mxCell id="bqWLZiY46NRUOo7dt1Uh-7" value="" style="shape=flexArrow;endArrow=classic;html=1;rounded=0;fillColor=#fff2cc;strokeColor=#d6b656;" edge="1" parent="1">
          <mxGeometry width="50" height="50" relative="1" as="geometry">
            <mxPoint x="70" y="142.5" as="sourcePoint" />
            <mxPoint x="140" y="142.5" as="targetPoint" />
          </mxGeometry>
        </mxCell>
        <mxCell id="bqWLZiY46NRUOo7dt1Uh-8" value="libc&lt;font face=&quot;Helvetica&quot;&gt;, skipped&lt;/font&gt;" style="text;html=1;align=center;verticalAlign=middle;whiteSpace=wrap;rounded=0;fontSize=18;fontStyle=2;fontFamily=Courier New;" vertex="1" parent="1">
          <mxGeometry x="550" y="70" width="120" height="30" as="geometry" />
        </mxCell>
        <mxCell id="bqWLZiY46NRUOo7dt1Uh-9" value="&lt;span style=&quot;font-style: normal;&quot;&gt;libpng&lt;font face=&quot;Helvetica&quot;&gt;,&lt;/font&gt;&lt;/span&gt;&lt;div&gt;&lt;span style=&quot;font-style: normal;&quot;&gt;&lt;font face=&quot;Helvetica&quot;&gt;&amp;nbsp;&lt;b&gt;RP Found&lt;/b&gt;&lt;/font&gt;&lt;/span&gt;&lt;/div&gt;" style="text;html=1;align=center;verticalAlign=middle;whiteSpace=wrap;rounded=0;fontSize=18;fontStyle=2;fontFamily=Courier New;" vertex="1" parent="1">
          <mxGeometry x="540" y="130" width="110" height="51" as="geometry" />
        </mxCell>
        <mxCell id="bqWLZiY46NRUOo7dt1Uh-10" value="libc&lt;font face=&quot;Helvetica&quot;&gt;, skipped&lt;/font&gt;" style="text;html=1;align=center;verticalAlign=middle;whiteSpace=wrap;rounded=0;fontSize=18;fontStyle=2;fontFamily=Courier New;" vertex="1" parent="1">
          <mxGeometry x="550" y="100" width="120" height="30" as="geometry" />
        </mxCell>
        <mxCell id="bqWLZiY46NRUOo7dt1Uh-11" style="edgeStyle=orthogonalEdgeStyle;rounded=0;orthogonalLoop=1;jettySize=auto;html=1;exitX=1;exitY=0.5;exitDx=0;exitDy=0;" edge="1" parent="1" source="bqWLZiY46NRUOo7dt1Uh-12" target="bqWLZiY46NRUOo7dt1Uh-8">
          <mxGeometry relative="1" as="geometry" />
        </mxCell>
        <mxCell id="bqWLZiY46NRUOo7dt1Uh-12" value="&lt;span style=&quot;font-size: 17px;&quot;&gt;rp in libc range&lt;/span&gt;" style="rounded=0;whiteSpace=wrap;html=1;fillColor=#f5f5f5;fontColor=#333333;strokeColor=#666666;" vertex="1" parent="1">
          <mxGeometry x="350" y="70" width="145" height="30" as="geometry" />
        </mxCell>
        <mxCell id="bqWLZiY46NRUOo7dt1Uh-13" style="edgeStyle=orthogonalEdgeStyle;rounded=0;orthogonalLoop=1;jettySize=auto;html=1;exitX=1;exitY=0.5;exitDx=0;exitDy=0;entryX=0;entryY=0.5;entryDx=0;entryDy=0;" edge="1" parent="1" source="bqWLZiY46NRUOo7dt1Uh-14" target="bqWLZiY46NRUOo7dt1Uh-10">
          <mxGeometry relative="1" as="geometry" />
        </mxCell>
        <mxCell id="bqWLZiY46NRUOo7dt1Uh-14" value="&lt;span style=&quot;font-size: 17px;&quot;&gt;rp in libc range&lt;/span&gt;" style="rounded=0;whiteSpace=wrap;html=1;fillColor=#f5f5f5;fontColor=#333333;strokeColor=#666666;" vertex="1" parent="1">
          <mxGeometry x="350" y="100" width="145" height="30" as="geometry" />
        </mxCell>
        <mxCell id="bqWLZiY46NRUOo7dt1Uh-15" style="edgeStyle=orthogonalEdgeStyle;rounded=0;orthogonalLoop=1;jettySize=auto;html=1;exitX=1;exitY=0.5;exitDx=0;exitDy=0;entryX=0;entryY=0.5;entryDx=0;entryDy=0;" edge="1" parent="1" source="bqWLZiY46NRUOo7dt1Uh-16" target="bqWLZiY46NRUOo7dt1Uh-9">
          <mxGeometry relative="1" as="geometry" />
        </mxCell>
        <mxCell id="bqWLZiY46NRUOo7dt1Uh-16" value="&lt;span style=&quot;font-size: 17px;&quot;&gt;rp &lt;b&gt;outside&lt;/b&gt;&amp;nbsp;libc range&lt;/span&gt;" style="rounded=0;whiteSpace=wrap;html=1;fillColor=#d5e8d4;strokeColor=#82b366;" vertex="1" parent="1">
          <mxGeometry x="350" y="129" width="145" height="41" as="geometry" />
        </mxCell>
        <mxCell id="bqWLZiY46NRUOo7dt1Uh-17" style="edgeStyle=orthogonalEdgeStyle;rounded=0;orthogonalLoop=1;jettySize=auto;html=1;exitX=1;exitY=0.5;exitDx=0;exitDy=0;entryX=0;entryY=0.5;entryDx=0;entryDy=0;" edge="1" parent="1" source="bqWLZiY46NRUOo7dt1Uh-2" target="bqWLZiY46NRUOo7dt1Uh-12">
          <mxGeometry relative="1" as="geometry" />
        </mxCell>
        <mxCell id="bqWLZiY46NRUOo7dt1Uh-18" style="edgeStyle=orthogonalEdgeStyle;rounded=0;orthogonalLoop=1;jettySize=auto;html=1;exitX=1;exitY=0.5;exitDx=0;exitDy=0;entryX=0;entryY=0.5;entryDx=0;entryDy=0;" edge="1" parent="1" source="bqWLZiY46NRUOo7dt1Uh-3" target="bqWLZiY46NRUOo7dt1Uh-14">
          <mxGeometry relative="1" as="geometry" />
        </mxCell>
        <mxCell id="bqWLZiY46NRUOo7dt1Uh-19" style="edgeStyle=orthogonalEdgeStyle;rounded=0;orthogonalLoop=1;jettySize=auto;html=1;exitX=1;exitY=0.5;exitDx=0;exitDy=0;entryX=0;entryY=0.5;entryDx=0;entryDy=0;" edge="1" parent="1" source="bqWLZiY46NRUOo7dt1Uh-4" target="bqWLZiY46NRUOo7dt1Uh-16">
          <mxGeometry relative="1" as="geometry" />
        </mxCell>
      </root>
    </mxGraphModel>
  </diagram>
</mxfile>
